<svg xmlns="http://www.w3.org/2000/svg" xmlns:xlink="http://www.w3.org/1999/xlink" version="1.1" x="0px" y="0px" viewBox="0 0 100 125" enable-background="new 0 0 100 100" xml:space="preserve"><g><g><g><path style="fill:#fff;" d="M35.914,94.072c-15.096,0-28.183-9.711-32.571-24.17c-5.452-17.971,4.73-37.025,22.697-42.48     c3.228-0.979,6.559-1.476,9.899-1.476c15.092,0,28.185,9.715,32.577,24.174c5.452,17.969-4.727,37.022-22.693,42.475     C42.591,93.576,39.257,94.072,35.914,94.072z M35.939,29.132c-3.029,0-6.046,0.45-8.973,1.338     C10.676,35.416,1.449,52.689,6.391,68.979c3.978,13.105,15.842,21.91,29.523,21.91c3.029,0,6.053-0.451,8.982-1.34     c16.287-4.945,25.514-22.219,20.573-38.506C61.487,37.938,49.62,29.132,35.939,29.132z"/></g></g></g><g><g><g><path style="fill:#fff;" d="M62.856,76.482C46.214,41.884,8.004,46.002,7.625,46.051l-0.379-3.159c0.392-0.05,40.829-4.485,58.477,32.211     L62.856,76.482z"/></g></g></g><g><g><g><path style="fill:#fff;" d="M4.384,72.613c-0.593-8.264,6.422-11.869,13.208-15.359c5.284-2.719,10.751-5.529,12.947-10.505     c4.653-10.543-5.617-15.754-6.055-15.971l1.396-2.862c4.684,2.279,12.291,9.419,7.57,20.12     c-2.65,6.009-8.895,9.218-14.402,12.052c-6.404,3.293-11.93,6.137-11.485,12.297L4.384,72.613z"/></g></g></g><g><g><g><path style="fill:#fff;" d="M41.253,93.408l-2.021-2.461c5.044-4.143,5.038-11.158,5.032-18.584c-0.003-6.109-0.009-12.422,3.092-17.105     c5.638-8.509,15.923-7.066,20.566-5.114l-1.229,2.936c-0.448-0.186-11.093-4.494-16.682,3.938     c-2.572,3.881-2.566,9.447-2.563,15.338C47.455,80.199,47.464,88.311,41.253,93.408z"/></g></g></g><g><g><g><rect style="fill:#fff;" x="34.463" y="27.619" transform="matrix(0.8881 0.4597 -0.4597 0.8881 31.6489 -9.8514)" width="3.187" height="64.907"/></g></g></g><g><g><g><polygon style="fill:#fff;" points="20.286,33.387 18.663,30.648 46.547,14.167 48.17,16.908    "/></g></g></g><g><g><g><polygon style="fill:#fff;" points="54.791,12.992 53.174,10.249 60.489,5.926 62.106,8.669    "/></g></g></g><g><g><g><rect style="fill:#fff;" x="66.738" y="61.412" transform="matrix(0.5091 0.8607 -0.8607 0.5091 101.1753 -20.2419)" width="3.188" height="34.322"/></g></g></g><g><g><g><rect style="fill:#fff;" x="73.506" y="49.495" transform="matrix(0.5091 0.8607 -0.8607 0.5091 85.9216 -36.662)" width="3.188" height="14.993"/></g></g></g><g><g><g><rect style="fill:#fff;" x="90.754" y="41.022" transform="matrix(0.5093 0.8606 -0.8606 0.5093 85.5878 -56.5116)" width="3.187" height="11.544"/></g></g></g><g><g><g><rect style="fill:#fff;" x="60.388" y="12.196" transform="matrix(0.5096 0.8604 -0.8604 0.5096 51.6932 -41.1899)" width="3.186" height="25.113"/></g></g></g><g><g><g><rect style="fill:#fff;" x="76.546" y="17.248" transform="matrix(0.5094 0.8605 -0.8605 0.5094 67.7901 -50.4461)" width="3.188" height="33.971"/></g></g></g></svg>