<svg xmlns="http://www.w3.org/2000/svg" viewBox="0 0 64 80" x="0px" y="0px"><title>games, joystick, gamepad</title><g><path style="fill:#fff;" d="M52.36,25.48H33.5V17.73a3.51,3.51,0,0,1,3.5-3.5h5.39a6.5,6.5,0,0,0,6.5-6.5V2.67a1.5,1.5,0,0,0-3,0V7.73a3.5,3.5,0,0,1-3.5,3.5H37a6.51,6.51,0,0,0-6.5,6.5v7.75H11.64A10.52,10.52,0,0,0,1.14,36v15.9a11,11,0,0,0,21.91,0V48.35a.5.5,0,0,1,.5-.5h16.9a.5.5,0,0,1,.5.5v3.53a11,11,0,0,0,21.91,0V36A10.52,10.52,0,0,0,52.36,25.48Zm7.5,26.4a8,8,0,0,1-15.91,0V48.35a3.5,3.5,0,0,0-3.5-3.5H23.55a3.5,3.5,0,0,0-3.5,3.5v3.53a8,8,0,0,1-15.91,0V36a7.51,7.51,0,0,1,7.5-7.5H52.36a7.51,7.51,0,0,1,7.5,7.5ZM13.94,32a5.6,5.6,0,1,0,5.6,5.6A5.6,5.6,0,0,0,13.94,32Zm0,8.19a2.6,2.6,0,1,1,2.6-2.59A2.6,2.6,0,0,1,13.94,40.21Zm41.72-2.59a1.5,1.5,0,0,1-1.5,1.5h-2.6v2.59a1.5,1.5,0,1,1-3,0V39.12H46a1.5,1.5,0,0,1,0-3h2.6v-2.6a1.5,1.5,0,0,1,3,0v2.6h2.6A1.5,1.5,0,0,1,55.66,37.62Z"/></g></svg>